<svg width="30.162mm" height="30.162mm" version="1.1" viewBox="0 0 30.1625 30.1625" xmlns="http://www.w3.org/2000/svg">
 <g transform="translate(-63.538 -119.39)">
  <g transform="translate(-5.7253 -36.256)">
   <g class="layer" transform="matrix(.26458 0 0 .26458 -12.964 106.15)">
    <title>Layer 1</title>
    <circle cx="367.78" cy="244.07" r="54" fill="#ffffff" stroke="#005fbf" stroke-linecap="round" stroke-linejoin="round" stroke-width="6"/>
   </g>
  </g>
  <g transform="matrix(0.9 0 0 0.9 -5.5 6.8)">
   <g transform="matrix(.26458 0 0 .26458 82.399 130.69)">
    <polygon points="3.954 76.044 11.543 58.333 17.12 52.755 27.969 62.204 21.715 68.459" fill="#f5ce85"/>
    <path d="m17.143 53.439 10.093 8.791-5.808 5.808-16.523 7.056 7.06-16.477 5.178-5.178m-0.047-1.367-5.975 5.975-8.118 18.947 18.997-8.113 6.702-6.702z" fill="#967a44"/>
    <polygon points="3.009 77 13.776 72.401 7.61 66.26" fill="#36404d"/>
    <path d="m59.418 10.43 4.828-4.828c1.356-1.355 3.158-2.102 5.075-2.102 1.916 0 3.719 0.747 5.074 2.102 2.798 2.798 2.798 7.351 0 10.149l-4.828 4.828z" fill="#f78f8f"/>
    <path d="m69.32 4c1.783 0 3.46 0.694 4.721 1.956 2.603 2.603 2.603 6.839 0 9.442l-4.475 4.475-9.442-9.442 4.474-4.475c1.262-1.262 2.939-1.956 4.722-1.956m0-1c-1.965 0-3.929 0.749-5.428 2.248l-5.182 5.182 10.856 10.856 5.182-5.182c2.998-2.998 2.998-7.858 0-10.856-1.498-1.499-3.463-2.248-5.428-2.248z" fill="#c74343"/>
    <path d="m22.454 67.719c-0.091-0.484-0.291-1.039-0.707-1.526-0.603-0.707-1.506-1.106-2.688-1.189-0.235-2.745-2.469-3.751-3.984-3.956-0.179-2.132-1.599-3.062-2.874-3.373l43.906-43.933 10.149 10.148z" fill="#ffeea3"/>
    <path d="m56.107 14.448 9.442 9.442-42.859 42.885c-0.132-0.307-0.314-0.615-0.562-0.907-0.62-0.727-1.498-1.169-2.62-1.321-0.401-2.534-2.412-3.607-3.98-3.929-0.264-1.727-1.298-2.684-2.402-3.163l42.981-43.007m0-1.414-44.986 45.013s0.015-1e-3 0.042-1e-3c0.395 0 3.43 0.109 3.43 3.461 0 0 3.986 0.124 3.986 3.98 3.964 0 3.421 3.394 3.421 3.394l44.963-44.991z" fill="#8B4513"/>
    <rect transform="matrix(.7071 -.7071 .7071 .7071 7.224 49.852)" x="57.714" y="9.029" width="12.156" height="14.353" fill="#d9e7f5"/>
    <path d="m63.015 7.54 9.442 9.442-7.888 7.888-9.442-9.442 7.888-7.888m0-1.414-9.303 9.303 10.856 10.856 9.303-9.303z" fill="#808080"/>
   </g>
  </g>
  <path transform="matrix(.26458 0 0 .26458 63.538 119.39)" d="m53.051 111.59c-24.596-1.4846-45.424-20.19-50.045-44.943-0.87185-4.6706-0.87994-14.593-0.015738-19.284 1.3738-7.4568 5.0009-16.029 9.4136-22.248 3.2752-4.6159 9.2442-10.367 14.13-13.614 9.5418-6.3414 18.945-9.1752 30.446-9.1752 6.1224 0 9.9568 0.50341 15.179 1.9928 16.943 4.8327 31.21 18.44 36.758 35.06 2.1215 6.3548 2.6664 9.9571 2.6664 17.628 0 5.8792-0.12545 7.5486-0.80514 10.714-3.9097 18.21-15.764 32.706-32.548 39.803-7.9111 3.3449-15.863 4.6294-25.179 4.0672zm-24.721-20.617 9.4748-4.068 28.377-28.432c26.568-26.619 28.406-28.541 28.832-30.134 1.0524-3.938-0.65549-7.6974-4.3542-9.5844-1.7511-0.89335-4.9812-0.88982-6.8939 0.0075-0.97584 0.45783-10.284 9.5382-29.372 28.653l-27.944 27.983-4.11 9.5793c-2.2605 5.2686-4.11 9.7418-4.11 9.9405 0 0.19864 0.14071 0.30759 0.31268 0.24211 0.17198-0.06547 4.5763-1.9496 9.7874-4.187z" fill="none" opacity=".29" stroke-width=".35714"/>
 </g>
</svg>
