<svg width="10.583mm" height="10.583mm" version="1.1" viewBox="0 0 10.583333 10.583333" xmlns="http://www.w3.org/2000/svg">
 <g transform="translate(-52.161 -117.08)">
  <g transform="translate(-4.2333 -35.076)">
   <g transform="matrix(.082682 0 0 .082682 56.394 152.16)">
    <circle class="st0" cx="64" cy="64" r="64" fill="#FF0000"/>
    <path class="st1" d="m100.3 90.4-26.4-26.4 26.3-26.4c0.4-0.4 0.4-1 0-1.4l-8.5-8.5c-0.4-0.4-1-0.4-1.4 0l-26.3 26.4-26.3-26.3c-0.4-0.4-1-0.4-1.4 0l-8.5 8.5c-0.4 0.4-0.4 1 0 1.4l26.2 26.3-26.3 26.3c-0.4 0.4-0.4 1 0 1.4l8.5 8.5c0.4 0.4 1.1 0.4 1.4 0l26.4-26.3 26.3 26.3c0.4 0.4 1.1 0.4 1.5 0.1l8.5-8.5c0.4-0.4 0.4-1 0-1.4z" fill="#fff"/>
   </g>
  </g>
 </g>
 <style type="text/css">.st0{fill:#FF0000;}
	.st1{fill:#FFFFFF;}</style>
</svg>
