<svg width="30.162mm" height="30.162mm" version="1.1" viewBox="0 0 30.1625 30.1625" xmlns="http://www.w3.org/2000/svg" xmlns:xlink="http://www.w3.org/1999/xlink">
 <g transform="translate(-70.341 -154.16)">
  <g class="layer" transform="matrix(.26458 0 0 .26458 .75595 105.74)">
   <title>ok_r</title>
   <circle cx="320" cy="240" r="54" fill="#ffffff" stroke="#006400" stroke-linecap="round" stroke-linejoin="round" stroke-width="6"/>
   <use transform="matrix(.17167 0 0 .21848 465.27 261.8)" x="-1166.2549" y="-333.7565" width="90%" height="90%" fill="#006400" xlink:href="#svg_9"/>
  </g>
  
  <g transform="matrix(.28 0 0 .28 74 160)">
   <polygon points="77.291 16.998 26.498 67.298 2.711 43.997 8.995 37.712 26.497 55.714 71.002 10.709" fill="#32CD32"  />
   <path d="m 71.004,11.418 5.578,5.578 -50.086,49.6 L 3.422,43.993 8.99,38.425 25.783,55.698 26.494,56.429 27.211,55.704 71.004,11.418 M 71,10 26.5,55 9,37 2,44 26.5,68 78,17 Z" fill="#006400" /> 
  </g>
 </g>
</svg>
